PathFileType	4	(X/Y/Z)	C:/Users/opensim2020/Desktop/walking_exp_matlab/subject02_walking07_straight_02.trc																																																																																																																																																				
DataRate	CameraRate	NumFrames	NumMarkers	Units	OrigDataRate	OrigDataStartFrame	OrigNumFrames																																																																																																																																																
100	100	7	50	mm	100	1331	210																																																																																																																																																
Frame#	Time	LFHD			RFHD			LBHD			RBHD			C7			T10			CLAV			STRN			RBAK			LSHO			LUPA			LELB			LFRM			LWRA			LWRB			LFIN			RSHO			RUPA			RELB			RFRM			RWRA			RWRB			RFIN			LASI			RASI			LPSI			RPSI			LTHI			LKNE			LTIB			LANK			LHEE			LTOE			RTHI			RKNE			RTIB			RANK			RHEE			RTOE			*39			*40			*41			*42			*43			*44			*45			*46			*47			*48			*49		
		X1	Y1	Z1	X2	Y2	Z2	X3	Y3	Z3	X4	Y4	Z4	X5	Y5	Z5	X6	Y6	Z6	X7	Y7	Z7	X8	Y8	Z8	X9	Y9	Z9	X10	Y10	Z10	X11	Y11	Z11	X12	Y12	Z12	X13	Y13	Z13	X14	Y14	Z14	X15	Y15	Z15	X16	Y16	Z16	X17	Y17	Z17	X18	Y18	Z18	X19	Y19	Z19	X20	Y20	Z20	X21	Y21	Z21	X22	Y22	Z22	X23	Y23	Z23	X24	Y24	Z24	X25	Y25	Z25	X26	Y26	Z26	X27	Y27	Z27	X28	Y28	Z28	X29	Y29	Z29	X30	Y30	Z30	X31	Y31	Z31	X32	Y32	Z32	X33	Y33	Z33	X34	Y34	Z34	X35	Y35	Z35	X36	Y36	Z36	X37	Y37	Z37	X38	Y38	Z38	X39	Y39	Z39	X40	Y40	Z40	X41	Y41	Z41	X42	Y42	Z42	X43	Y43	Z43	X44	Y44	Z44	X45	Y45	Z45	X46	Y46	Z46	X47	Y47	Z47	X48	Y48	Z48	X49	Y49	Z49	X50	Y50	Z50
																																																																																																																																																							
1	0	-770.17004	1741.07214	929.47968	-781.04584	1724.99548	1072.89294	-899.953	1665.10645	913.01178	-922.55414	1647.6936	1054.01038	-961.33624	1527.49988	985.84271	-1023.20361	1255.8313	993.99359	-823.12683	1455.96851	980.11908	-776.98004	1283.16602	1004.53198	-1025.3418	1361.03491	1056.20508	-890.28503	1492.95581	809.04688	-953.61151	1306.98914	728.89111	-998.83191	1176.85229	717.3642	-1044.37488	1057.68774	688.61377	-1039.88	917.75366	687.10736	-1087.24939	943.30817	670.67023	-1097.07239	879.25311	653.70636	-887.00635	1502.86414	1171.995	-876.15582	1322.71045	1278.07434	-816.16962	1190.40271	1314.88879	-743.05487	1095.72058	1338.44714	-650.72028	997.6167	1323.68066	-689.29523	979.01483	1360.89355	-628.87164	939.87683	1365.49109	-782.6001	988.19452	894.1922	-822.70367	974.87335	1148.4209	-1000.52557	1033.30249	941.31604	-1023.57019	1036.96155	1053.27075	-776.00464	685.82159	826.01056	-734.65973	492.53012	863.12054	-727.72589	298.95688	862.21021	-650.05304	88.23348	893.62549	-676.28613	52.21839	946.34772	-494.03882	92.64365	892.29016	-951.13055	675.0462	1185.78003	-985.39172	467.45041	1138.80457	-1058.27588	293.12323	1132.21716	-1097.94482	103.67836	1087.17554	-1128.31616	50.47056	1025.62048	-956.05096	41.11146	1129.48792	-878.815	1807.60498	1010.93256	-2845.24585	1033.80005	3360.24512	NaN	NaN	NaN	NaN	NaN	NaN	NaN	NaN	NaN	NaN	NaN	NaN	NaN	NaN	NaN	NaN	NaN	NaN	NaN	NaN	NaN	NaN	NaN	NaN	NaN	NaN	NaN
2	0.01	-761.65613	1739.39966	929.46149	-771.95691	1723.76294	1072.85352	-890.98926	1663.83765	912.98987	-913.46667	1646.31177	1054.12769	-952.12524	1526.13501	986.07275	-1014.08582	1254.5011	994.11243	-813.83295	1454.54968	980.29016	-767.7876	1281.724	1004.75073	-1016.15875	1359.72961	1056.31543	-881.04926	1491.47375	809.21539	-945.15283	1305.79895	729.49988	-991.28247	1175.93933	718.3681	-1037.66882	1057.29797	689.69885	-1034.52283	917.03583	687.99347	-1082.01074	943.31708	671.8764	-1092.5481	879.25989	654.77264	-877.73114	1501.39734	1172.18921	-866.24188	1321.32422	1278.26892	-805.29388	1189.42651	1315.21033	-730.87616	1095.67957	1338.66174	-637.17816	998.96851	1323.62939	-675.50879	979.68268	1360.73535	-614.48071	941.46405	1365.0791	-773.12878	986.99542	895.2757	-814.52008	973.7005	1149.50244	-991.63177	1032.19641	941.51733	-1014.66925	1035.57214	1053.0603	-766.63922	684.83154	826.19214	-724.54071	491.43716	863.28925	-712.30316	298.21716	861.56055	-629.09735	89.59081	893.45367	-654.82941	52.85527	945.95319	-473.07187	97.37327	894.00433	-945.01611	674.36121	1186.03552	-981.18793	467.03525	1138.62903	-1055.96509	293.60294	1131.99414	-1097.36157	104.50028	1086.96021	-1127.77319	51.43228	1025.21936	-955.86023	41.21549	1129.66821	-869.81573	1806.18652	1011.17261	-2845.89624	1034.06323	3357.38892	NaN	NaN	NaN	NaN	NaN	NaN	NaN	NaN	NaN	NaN	NaN	NaN	NaN	NaN	NaN	NaN	NaN	NaN	NaN	NaN	NaN	NaN	NaN	NaN	NaN	NaN	NaN
3	0.02	-752.82269	1738.31689	929.06812	-762.86395	1722.53467	1072.75635	-881.93823	1662.54187	912.97888	-904.33588	1644.95605	1054.11328	-942.82886	1524.7467	986.10266	-1004.82159	1253.16687	994.1474	-804.43317	1453.16638	980.3042	-758.50958	1280.33655	1004.91248	-1006.86993	1358.31458	1056.18835	-871.70581	1490.03564	809.17383	-936.41333	1304.44629	729.92657	-983.26538	1174.80408	719.26038	-1030.92285	1056.62073	690.96375	-1028.75378	916.27295	688.71271	-1075.99231	943.07428	673.05896	-1087.62317	879.18726	656.31378	-868.45892	1499.92432	1172.36133	-856.52252	1319.74475	1278.08167	-794.6106	1188.35803	1315.33313	-719.04156	1095.47705	1338.56543	-624.09949	1000.08691	1323.39673	-662.1908	980.13202	1360.32068	-600.62109	942.92755	1364.76538	-763.47705	985.66949	896.3468	-805.96515	972.29614	1150.42859	-982.18323	1030.82507	941.25897	-1005.55115	1034.18457	1052.75537	-756.52783	683.6684	826.45667	-714.06952	490.28079	863.35345	-697.61652	297.57962	860.95154	-609.73279	90.81283	893.34161	-635.14728	53.31655	945.49738	-453.80215	101.76624	894.85626	-938.86774	673.74371	1186.24646	-976.8158	466.70541	1138.69629	-1053.60767	294.13266	1131.66223	-1096.75464	105.34776	1086.73083	-1127.4906	52.61375	1024.92139	-955.90802	41.10749	1129.99548	-860.78015	1804.8053	1010.84888	-2845.76099	1034.20166	3357.35181	NaN	NaN	NaN	NaN	NaN	NaN	NaN	NaN	NaN	NaN	NaN	NaN	NaN	NaN	NaN	NaN	NaN	NaN	NaN	NaN	NaN	NaN	NaN	NaN	NaN	NaN	NaN
4	0.03	-742.92462	1737.12061	928.84729	-753.70422	1721.2876	1072.44617	-872.60565	1660.94043	912.90295	-894.95447	1643.42566	1053.85437	-933.47552	1523.38623	986.03497	-995.40204	1251.8158	993.97845	-795.05231	1451.67822	980.19983	-749.16632	1278.89417	1004.974	-997.57239	1356.91956	1055.96057	-862.19574	1488.53601	809.04602	-927.38391	1303.04736	730.14044	-975.17133	1173.74951	719.66199	-1023.5022	1055.92688	691.74988	-1022.2514	915.33728	689.78241	-1069.27222	942.53082	674.2406	-1081.8573	878.64679	657.69049	-859.1651	1498.51685	1172.35925	-846.86835	1318.17981	1277.79822	-784.24261	1187.34546	1315.43262	-707.47772	1095.10974	1338.30347	-611.41797	1001.03595	1322.90784	-649.28979	980.39117	1359.65747	-587.28918	944.30548	1364.73682	-753.14417	984.49829	897.12988	-797.23291	970.81537	1151.15125	-972.68848	1029.42957	940.95813	-996.29938	1032.81299	1052.4292	-746.04767	682.69037	826.76202	-703.76245	489.25754	863.5199	-683.88275	296.94724	860.70959	-592.31696	91.78408	892.98883	-617.12836	53.63649	944.97107	-436.4165	105.36783	895.18976	-932.50922	673.09241	1186.32288	-972.2193	466.43134	1138.77734	-1051.14429	294.76166	1131.28247	-1096.1051	106.36803	1086.57227	-1127.10657	54.06573	1024.69336	-955.89905	40.99208	1130.02747	-851.80658	1803.42102	1010.56793	-2845.13281	1033.89111	3360.23193	NaN	NaN	NaN	NaN	NaN	NaN	NaN	NaN	NaN	NaN	NaN	NaN	NaN	NaN	NaN	NaN	NaN	NaN	NaN	NaN	NaN	NaN	NaN	NaN	NaN	NaN	NaN
5	0.04	-734.28925	1735.61426	929.00287	-744.42944	1720.0094	1072.24878	-863.4151	1659.68164	912.59723	-885.78253	1642.16528	1053.69739	-923.98547	1522.021	985.7829	-985.88269	1250.47168	993.72913	-785.52612	1450.30249	980.04364	-739.68597	1277.52136	1004.98676	-988.18054	1355.54407	1055.55859	-852.49573	1487.04163	808.85742	-918.11926	1301.68176	730.26184	-966.51483	1172.5415	720.21027	-1015.38635	1054.90271	692.46552	-1015.30774	914.53375	690.6344	-1061.92908	941.76703	675.23535	-1075.34814	877.89813	659.24298	-849.79785	1497.0697	1172.22131	-837.48096	1316.82092	1277.9563	-774.04224	1186.12231	1315.19568	-696.30511	1094.63367	1337.87842	-599.17456	1001.7677	1322.26172	-636.88898	980.48047	1358.84338	-574.21259	945.08942	1363.56555	-743.60217	983.11169	897.8501	-788.34094	969.36316	1151.72009	-963.04999	1028.11145	940.57794	-986.85016	1031.48071	1052.03162	-734.99506	681.76343	827.50909	-693.31018	488.24765	863.64093	-671.20093	296.29684	860.62579	-576.63055	92.42492	892.53772	-601.10944	53.77325	944.36444	-420.81787	107.71582	895.10571	-926.09003	672.53864	1186.36182	-967.37695	466.26483	1139.15295	-1048.30884	295.43201	1131.07202	-1095.34326	107.4554	1086.46106	-1126.71631	55.56957	1024.49841	-955.79364	40.95678	1130.40198	-842.70221	1802.17664	1010.2984	NaN	NaN	NaN	NaN	NaN	NaN	NaN	NaN	NaN	NaN	NaN	NaN	NaN	NaN	NaN	NaN	NaN	NaN	NaN	NaN	NaN	NaN	NaN	NaN	NaN	NaN	NaN	NaN	NaN	NaN
6	0.05	-725.35553	1734.57227	928.15643	-735.30939	1718.93274	1071.77515	-854.25629	1658.25684	912.15918	-876.49432	1640.82056	1053.2937	-914.4165	1520.64783	985.39459	-976.22424	1249.13037	993.33972	-775.82428	1448.77502	979.88867	-730.14935	1276.19202	1004.82355	-978.74994	1354.17188	1055.05542	-842.7041	1485.64148	808.42535	-908.53265	1300.2644	730.19464	-957.2309	1171.15051	720.99866	-1006.97626	1053.7572	693.15277	-1007.30853	912.90881	691.69904	-1054.05518	940.85455	676.11871	-1067.81311	876.91553	660.75006	-840.37177	1495.71301	1171.97583	-828.07587	1315.13452	1277.10046	-764.10144	1184.85034	1314.75671	-685.44452	1093.94421	1337.19678	-587.28821	1002.30957	1321.45911	-624.89014	980.32092	1357.71484	-562.01874	945.92517	1362.77332	-733.48199	981.90778	898.28534	-779.20496	967.87946	1152.1167	-953.32068	1026.82996	940.16278	-977.13599	1030.06689	1051.56665	-723.44812	680.79401	828.27228	-682.39954	487.47052	863.52179	-659.42761	295.62228	860.59064	-562.98438	92.54691	891.97296	-587.14301	53.55927	943.73474	-407.2485	108.63675	894.77637	-919.48328	672.10016	1186.39868	-962.33173	466.04437	1139.22412	-1045.2417	296.15088	1130.98486	-1094.6416	108.90997	1086.34106	-1126.1123	57.29016	1024.27771	-955.69476	40.90815	1130.44421	-833.60547	1800.84155	1009.81097	-2845.81665	1033.97913	3357.37378	NaN	NaN	NaN	NaN	NaN	NaN	NaN	NaN	NaN	NaN	NaN	NaN	NaN	NaN	NaN	NaN	NaN	NaN	NaN	NaN	NaN	NaN	NaN	NaN	NaN	NaN	NaN
7	0.06	-715.44592	1733.39758	927.95581	-726.02704	1717.85791	1071.27209	-844.77808	1656.86316	911.71759	-866.97052	1639.45801	1052.74207	-904.78217	1519.34851	984.86163	-966.44861	1247.85022	992.91608	-766.258	1447.59192	979.35541	-720.45917	1274.93274	1004.58112	-969.01825	1352.84705	1054.34741	-832.84839	1484.28833	807.9137	-898.88354	1298.71497	730.08344	-948.07874	1169.80872	721.12872	-997.75708	1052.45898	693.91644	-998.82489	911.52533	693.2215	-1045.17432	939.44012	677.17285	-1059.62097	875.60803	662.27905	-830.87842	1494.48132	1171.88977	-818.68445	1313.52307	1276.09424	-754.41296	1183.50708	1314.14648	-674.92493	1093.18762	1336.37268	-575.84705	1002.56171	1320.36755	-613.33716	979.99243	1356.39905	-550.11847	946.48273	1361.86743	-722.77838	980.70502	898.47833	-769.95282	966.40771	1152.36133	-943.49426	1025.60999	939.70966	-967.41376	1028.72925	1051.0968	-711.78998	680.2193	828.79547	-671.45367	486.75861	863.2713	-648.25488	294.88834	860.24554	-551.41675	92.05119	891.47461	-575.39063	52.97088	943.2533	-395.72516	108.23214	894.1734	-912.58722	671.68512	1186.35022	-956.88013	465.95792	1139.74719	-1041.96667	297.01486	1131.02197	-1093.70825	110.33042	1086.54089	-1125.6803	59.28704	1024.24695	-955.58746	40.81296	1130.63159	-824.42969	1799.55872	1009.26971	NaN	NaN	NaN	NaN	NaN	NaN	NaN	NaN	NaN	NaN	NaN	NaN	NaN	NaN	NaN	NaN	NaN	NaN	NaN	NaN	NaN	NaN	NaN	NaN	NaN	NaN	NaN	NaN	NaN	NaN
